<?xml version="1.0" encoding="UTF-8" standalone="no"?>
<!DOCTYPE svg PUBLIC "-//W3C//DTD SVG 1.1//EN" "http://www.w3.org/Graphics/SVG/1.1/DTD/svg11.dtd">
<svg width="100%" height="100%" viewBox="0 0 500 350" version="1.1" xmlns="http://www.w3.org/2000/svg" xmlns:xlink="http://www.w3.org/1999/xlink" xml:space="preserve" xmlns:serif="http://www.serif.com/" style="fill-rule:evenodd;clip-rule:evenodd;stroke-linejoin:round;stroke-miterlimit:2;">
    <g transform="matrix(0.937145,0,0,0.979858,-81.3374,-99.3583)">
        <path d="M187.59,134.4C208.742,134.4 227.356,146.712 240.086,164.998C251.754,181.76 258.731,203.928 259.859,228.463L272.109,235.807C295.777,205.194 334.531,180.69 366.777,169.893C442.543,150.198 498.657,171.877 547.187,230.385C568.027,256.655 577.597,284.444 581.484,313.432L597.406,313.432C602.398,313.994 606.715,318.307 607.277,323.295C607.84,328.283 604.597,333.447 599.855,335.111L570.632,344.9C563.894,351.439 554.769,356.654 547.359,359.935L600.554,381.263C604.441,382.814 607.277,386.705 607.57,390.876C607.859,395.048 605.589,399.294 601.957,401.368C561.09,424.7 527.047,430.243 500.637,422.001C477.532,414.787 461.723,396.931 453.914,375.669C424.937,375.962 400.625,369.193 376.219,358.36L348.746,413.434C347.253,416.536 344.249,418.872 340.871,419.552C314.285,423.317 290.222,425.599 264.926,422.7C253.223,421.477 245.469,418.376 243.577,407.141C248.671,366.418 278.797,337.957 318.472,325.317C315.859,323.419 313.441,321.333 310.949,319.372C290.511,320.434 271.777,313.809 253.027,309.583C232.152,304.872 211.55,302.415 186.183,312.555C178.718,315.614 172.196,311.904 173.809,304.006L180.372,293.252C177.584,296.915 151.702,301.77 140.511,300.84C129.929,299.958 118.839,295.497 110.238,286.68C99.746,273.371 94.058,262.071 92.39,246.293C92.39,218.215 103.031,190.746 120.038,169.891C137.597,147.84 164.823,134.871 187.581,134.399L187.59,134.4ZM187.59,156.779C169.391,156.779 151.332,167.146 137.543,184.052C124.008,200.65 115.289,223.177 114.969,245.068C117.52,258.256 121.77,266.427 126.344,271.119C131.043,275.935 136.051,277.943 142.266,278.463C154.704,279.498 154.674,278.133 164.947,278.213C177.126,278.308 174.912,272.934 186.275,277.716L196.684,286.331C212.624,275.351 240.192,283.729 257.93,287.729C267.2,289.819 275.668,291.889 283.653,293.674C274.934,283.119 268.731,271.873 267.204,259.58C260.368,254.272 251.224,249.428 243.407,244.721C240.106,242.737 237.974,238.952 237.981,235.104C237.981,211.999 231.376,191.643 221.708,177.756C212.302,166.94 199.665,157.037 187.587,156.776L187.59,156.779ZM403.87,184.404C411.663,202.709 416.3,222.099 416.819,244.021L487.339,272.345C499.237,260.517 509.859,250.517 524.96,238.603C491.538,201.841 452.093,179.412 403.87,184.404ZM381.472,188.951C357.64,196.369 332.132,209.24 314.976,225.49C328.378,243.205 345.808,263.306 364.324,280.388C374.14,272.626 384.418,262.986 394.773,252.763C394.3,229.81 389.453,206.384 381.472,188.947L381.472,188.951ZM198.782,212.728C204.966,212.728 209.981,217.736 209.981,223.916C209.981,230.096 204.965,235.104 198.782,235.104C192.598,235.104 187.583,230.096 187.583,223.916C187.583,217.736 192.599,212.728 198.782,212.728ZM296.95,239.126C289.852,245.024 288.626,250.341 289.427,256.786C290.47,265.192 297.903,277.294 310.251,289.306C334.856,313.244 377.329,336.697 409.118,347.353C456.348,357.548 525.438,357.576 557.858,324.974C516.288,341.329 464.381,349.716 419.968,341.06C372.128,329.111 326.292,278.537 296.948,239.13L296.95,239.126ZM538.08,256.61C523.572,268.094 513.627,277.563 501.334,289.829C502.014,299.298 504.936,307.122 508.682,317.63C524.862,313.743 540.737,308.001 556.104,300.845C554.326,288.63 548.201,272.665 538.081,256.611L538.08,256.61ZM412.62,266.575C402.565,276.571 392.347,286.458 381.823,295.071C396.811,306.841 411.729,315.778 425.221,319.2C445.69,323.747 466.123,324.211 486.291,321.649C483.06,312.606 480.088,303.77 479.115,293.153L412.62,266.575ZM344.55,342.102C304.999,348.246 276.226,368.868 267.905,400.497C289.038,402.516 311.155,401.196 331.6,397.876L356.272,348.571C352.342,346.496 348.428,344.348 344.549,342.102L344.55,342.102ZM512.71,370.25C501.437,372.531 489.737,374.133 477.886,374.969C483.968,387.344 493.62,396.403 507.284,400.668C521.815,405.207 542.323,403.765 568.706,392.625L512.71,370.25Z" style="fill:rgb(250,54,0);fill-rule:nonzero;"/>
    </g>
</svg>
